<svg width="131" height="41" viewBox="0 0 131 41" fill="none" xmlns="http://www.w3.org/2000/svg">
<path d="M33.9559 40.9475H20.2897C9.10501 40.9475 0 31.8425 0 20.6578C0 9.47317 9.10501 0.368164 20.2897 0.368164C31.4743 0.368164 40.5793 9.47317 40.5793 20.6578V34.3416H37.8356V20.6578C37.8356 10.9936 29.9714 3.1119 20.2897 3.1119C10.6079 3.1119 2.74374 10.9761 2.74374 20.6578C2.74374 30.3395 10.6079 38.2038 20.2897 38.2038H33.9559V40.9475Z" fill="#363636"/>
<path d="M35.3191 40.8428H32.5753V20.658C32.5753 13.8773 27.0529 8.35489 20.2722 8.35489C13.4915 8.35489 7.96909 13.8773 7.96909 20.658C7.96909 27.4387 13.4915 32.9611 20.2722 32.9611H27.8393V35.7049H20.2722C11.9711 35.7049 5.22536 28.9591 5.22536 20.658C5.22536 12.3569 11.9711 5.61115 20.2722 5.61115C28.5733 5.61115 35.3191 12.3569 35.3191 20.658V40.8428Z" fill="#363636"/>
<path d="M30.0938 34.3418H27.35V30.5844L20.2548 30.4796C14.8547 30.4796 10.4507 26.0756 10.4507 20.658C10.4507 15.2405 14.8547 10.8365 20.2722 10.8365C25.6898 10.8365 30.0938 15.2405 30.0938 20.658V34.3418ZM20.2722 13.5802C16.3751 13.5802 13.1944 16.7609 13.1944 20.658C13.1944 24.5552 16.3751 27.7358 20.2722 27.7358L27.35 27.8407V20.658C27.35 16.7609 24.1869 13.5802 20.2722 13.5802Z" fill="#363636"/>
<path d="M40.5441 32.9609H25.4099V35.7047H40.5441V32.9609Z" fill="#363636"/>
<path d="M72.1406 31.6852H67.6143V29.2036C65.6395 31.2658 63.0356 32.2969 59.785 32.2969C56.849 32.2969 54.3325 31.2308 52.2354 29.0988C50.1383 26.9667 49.0897 24.2404 49.0897 20.9025C49.0897 17.5995 50.1557 14.8733 52.2703 12.7237C54.3849 10.5742 56.9015 9.50813 59.8025 9.50813C63.053 9.50813 65.657 10.5392 67.6318 12.6014V10.1198H72.1406V31.6852ZM65.4822 26.2327C66.8978 24.8521 67.6143 23.087 67.6143 20.9025C67.6143 18.7355 66.8978 16.9529 65.4822 15.5723C64.0666 14.1917 62.4064 13.5101 60.519 13.5101C58.4918 13.5101 56.8141 14.1917 55.4684 15.5374C54.1403 16.883 53.4587 18.683 53.4587 20.9025C53.4587 23.1219 54.1228 24.922 55.4684 26.2676C56.7966 27.6133 58.4918 28.2948 60.519 28.2948C62.4064 28.2948 64.0666 27.5958 65.4822 26.2327Z" fill="#363636"/>
<path d="M96.3794 12.7237C98.494 14.8733 99.56 17.5995 99.56 20.9025C99.56 24.2404 98.5115 26.9667 96.4143 29.0988C94.3172 31.2308 91.8007 32.2969 88.8647 32.2969C85.6142 32.2969 83.0102 31.2658 81.0354 29.2036V31.6852H76.5091V0.368164H81.0354V12.5839C83.0102 10.5217 85.6142 9.49065 88.8647 9.49065C91.7482 9.49065 94.2473 10.5742 96.3794 12.7237ZM93.1463 26.2676C94.4745 24.922 95.1386 23.1219 95.1386 20.9025C95.1386 18.683 94.4745 16.883 93.1463 15.5374C91.8181 14.1917 90.123 13.5101 88.0957 13.5101C86.2083 13.5101 84.5656 14.1917 83.1326 15.5723C81.6995 16.9529 81.0005 18.718 81.0005 20.9025C81.0005 23.0695 81.717 24.8521 83.1326 26.2327C84.5481 27.6133 86.2083 28.2948 88.0957 28.2948C90.1404 28.2948 91.8181 27.6133 93.1463 26.2676Z" fill="#363636"/>
<path d="M102.025 31.6852V0.368164H106.551V31.6852H102.025Z" fill="#363636"/>
<path d="M131 21.9863H113.506C113.716 23.9261 114.432 25.4815 115.673 26.6349C116.914 27.7883 118.364 28.3825 120.025 28.3825C123.013 28.3825 125.128 27.1417 126.368 24.6427L130.423 25.5165C129.549 27.7534 128.203 29.4311 126.403 30.5845C124.586 31.7379 122.471 32.2971 120.025 32.2971C117.001 32.2971 114.415 31.2311 112.265 29.1165C110.098 27.0019 109.032 24.2757 109.032 20.9377C109.032 17.5649 110.116 14.8211 112.265 12.689C114.432 10.557 117.071 9.49094 120.199 9.49094C123.135 9.49094 125.634 10.522 127.697 12.5492C129.776 14.5939 130.86 17.2153 130.982 20.396V21.9863H131ZM116.04 14.891C114.764 15.8173 113.961 17.1105 113.646 18.7707H126.351C126.001 17.0581 125.285 15.7474 124.184 14.8561C123.083 13.9648 121.755 13.5104 120.217 13.5104C118.696 13.4929 117.316 13.9648 116.04 14.891Z" fill="#363636"/>
<path d="M53.0572 36.4907H51.0824V37.9062H53.0572V38.5703H51.0824V40.9296H50.3484V35.8441H53.0572V36.4907Z" fill="#363636"/>
<path d="M58.3172 40.9125H57.5657L56.8842 39.4096H54.7171L54.0705 40.9125H53.319L55.5035 35.7921H56.0104L58.3172 40.9125ZM56.6045 38.763L55.7832 36.928L55.0142 38.763H56.6045Z" fill="#363636"/>
<path d="M63.4382 36.9628C62.8965 36.6657 62.3023 36.456 61.6732 36.456C60.4498 36.456 59.6634 37.3647 59.6634 38.3783C59.6634 39.322 60.3275 40.3007 61.6906 40.3007C62.3372 40.3007 62.9664 40.091 63.4907 39.7415V40.5454C62.8965 40.8599 62.2848 40.9997 61.6382 40.9997C59.7508 40.9997 58.8945 39.5842 58.8945 38.3958C58.8945 36.9977 60.0304 35.7744 61.6382 35.7744C62.4246 35.7744 63.0887 36.054 63.4208 36.1938V36.9628H63.4382Z" fill="#363636"/>
<path d="M65.6395 40.9124H64.9055V35.8269H65.6395V40.9124Z" fill="#363636"/>
<path d="M68.0167 40.2655H70.3061V40.9296H67.2827V35.8441H68.0167V40.2655Z" fill="#363636"/>
<path d="M72.1937 40.9124H71.4597V35.8269H72.1937V40.9124Z" fill="#363636"/>
<path d="M77.6628 36.4735H75.8803V40.9124H75.1463V36.4735H73.3987V35.8269H77.6453V36.4735H77.6628Z" fill="#363636"/>
<path d="M80.9315 38.2383V40.9296H80.18V38.2383L78.3101 35.8441H79.1839L80.547 37.5917L81.9276 35.8441H82.8014L80.9315 38.2383Z" fill="#363636"/>
<path d="M88.9008 36.9628C88.4639 36.5434 88.0444 36.4385 87.7124 36.4385C87.2056 36.4385 86.9085 36.7006 86.9085 37.0327C86.9085 37.4696 87.2056 37.6443 88.1842 38.2036C88.394 38.3259 88.6386 38.5007 88.8483 38.7628C89.0056 38.9725 89.128 39.2347 89.128 39.6017C89.128 40.4056 88.5512 40.9823 87.66 40.9823C87.1532 40.9823 86.6813 40.8075 86.2968 40.5104V39.5842C86.4541 39.7764 86.9085 40.3357 87.66 40.3357C88.0444 40.3357 88.4464 40.091 88.4464 39.6716C88.4464 39.2521 88.0095 38.9376 87.7823 38.7978C86.9784 38.3084 86.7512 38.1686 86.524 37.889C86.3667 37.6793 86.2619 37.4521 86.2619 37.1201C86.2619 36.3511 86.8386 35.7744 87.7648 35.7744C88.1843 35.7744 88.5862 35.8968 88.9357 36.1239V36.9628H88.9008Z" fill="#363636"/>
<path d="M95.6637 38.3783C95.6637 39.8462 94.5452 40.9997 92.885 40.9997C91.2947 40.9997 90.1937 39.8288 90.1937 38.4132C90.1937 37.0676 91.1724 35.7918 92.92 35.7918C94.5977 35.7743 95.6637 37.0151 95.6637 38.3783ZM90.9452 38.3957C90.9452 39.5492 91.8539 40.3181 92.92 40.3181C93.4617 40.3181 94.0559 40.0909 94.4054 39.7064C94.72 39.3569 94.9122 38.7977 94.9122 38.3608C94.9122 37.5219 94.2656 36.4559 92.9374 36.4559C91.5219 36.4559 90.9452 37.5394 90.9452 38.3957Z" fill="#363636"/>
<path d="M97.7958 40.2655H100.085V40.9296H97.0618V35.8441H97.7958V40.2655Z" fill="#363636"/>
<path d="M105.503 38.7276C105.503 39.217 105.503 39.9335 104.926 40.4403C104.472 40.8422 103.912 40.9995 103.318 40.9995C102.602 40.9995 101.815 40.7548 101.413 40.1082C101.134 39.6539 101.134 39.0771 101.134 38.7276V35.8441H101.868V38.7276C101.868 39.3917 101.92 39.6538 102.182 39.916C102.392 40.1432 102.742 40.3354 103.318 40.3354C104.14 40.3354 104.489 39.916 104.629 39.6713C104.734 39.4966 104.769 39.217 104.769 38.7276V35.8441H105.485V38.7276H105.503Z" fill="#363636"/>
<path d="M110.851 36.4735H109.068V40.9124H108.334V36.4735H106.587V35.8269H110.833V36.4735H110.851Z" fill="#363636"/>
<path d="M112.808 40.9124H112.074V35.8269H112.808V40.9124Z" fill="#363636"/>
<path d="M119.693 38.3783C119.693 39.8462 118.574 40.9997 116.914 40.9997C115.324 40.9997 114.223 39.8288 114.223 38.4132C114.223 37.0676 115.201 35.7918 116.949 35.7918C118.644 35.7743 119.693 37.0151 119.693 38.3783ZM114.974 38.3957C114.974 39.5492 115.883 40.3181 116.949 40.3181C117.491 40.3181 118.085 40.0909 118.434 39.7064C118.749 39.3569 118.941 38.7977 118.941 38.3608C118.941 37.5219 118.295 36.4559 116.966 36.4559C115.551 36.4559 114.974 37.5394 114.974 38.3957Z" fill="#363636"/>
<path d="M125.827 40.9124H125.198L121.808 36.9978V40.9124H121.126V35.8269H121.72L125.146 39.7765V35.8269H125.845V40.9124H125.827Z" fill="#363636"/>
<path d="M129.864 36.9628C129.427 36.5434 129.008 36.4385 128.676 36.4385C128.169 36.4385 127.872 36.7006 127.872 37.0327C127.872 37.4696 128.169 37.6443 129.148 38.2036C129.357 38.3259 129.602 38.5007 129.812 38.7628C129.969 38.9725 130.091 39.2347 130.091 39.6017C130.091 40.4056 129.515 40.9823 128.623 40.9823C128.117 40.9823 127.645 40.8075 127.26 40.5104V39.5842C127.418 39.7764 127.872 40.3357 128.623 40.3357C129.008 40.3357 129.41 40.091 129.41 39.6716C129.41 39.2521 128.973 38.9376 128.746 38.7978C127.942 38.3084 127.715 38.1686 127.487 37.889C127.33 37.6793 127.225 37.4521 127.225 37.1201C127.225 36.3511 127.802 35.7744 128.728 35.7744C129.148 35.7744 129.55 35.8968 129.899 36.1239V36.9628H129.864Z" fill="#363636"/>
</svg>
