<svg width="77" height="99" viewBox="0 0 77 99" fill="none" xmlns="http://www.w3.org/2000/svg">
<path d="M0.63 84.376C0.63 88.462 3.114 91.198 6.84 91.198C8.424 91.198 9.864 90.64 10.584 89.794L10.746 91H13.248V83.35H6.984V85.906H10.53V85.942C10.53 86.554 9.774 88.48 7.218 88.48C5.094 88.48 3.582 87.148 3.582 84.466C3.582 81.892 4.986 80.164 7.236 80.164C8.622 80.164 9.72 80.812 10.188 82.216H13.122C12.816 79.336 10.494 77.428 7.308 77.428C3.186 77.428 0.63 80.362 0.63 84.376ZM14.8139 86.482C14.8139 89.344 16.5959 91.234 19.2419 91.234C21.5099 91.234 23.2559 89.848 23.5799 87.886H21.0419C20.8619 88.48 20.1779 88.912 19.2959 88.912C18.1079 88.912 17.4959 88.264 17.4959 87.166H23.5439V86.464C23.5439 83.62 21.9419 81.712 19.2599 81.712C16.5959 81.712 14.8139 83.62 14.8139 86.482ZM17.5319 85.456C17.5319 84.574 18.1799 83.98 19.1699 83.98C20.1419 83.98 20.7899 84.574 20.7899 85.456H17.5319ZM28.7788 91V84.304H30.4708V82H28.7788V79.21H26.0428V82H24.3328V84.304H26.0428V91H28.7788ZM39.7395 91V85.582H44.7075V91H47.6415V77.68H44.7075V82.99H39.7395V77.68H36.8235V91H39.7395ZM49.4076 86.482C49.4076 89.344 51.1896 91.234 53.8356 91.234C56.1036 91.234 57.8496 89.848 58.1736 87.886H55.6356C55.4556 88.48 54.7716 88.912 53.8896 88.912C52.7016 88.912 52.0896 88.264 52.0896 87.166H58.1376V86.464C58.1376 83.62 56.5356 81.712 53.8536 81.712C51.1896 81.712 49.4076 83.62 49.4076 86.482ZM52.1256 85.456C52.1256 84.574 52.7736 83.98 53.7636 83.98C54.7356 83.98 55.3836 84.574 55.3836 85.456H52.1256ZM62.7245 91V77.428H59.9345V91H62.7245ZM65.1376 95.32H67.8736V90.1C68.3956 90.784 69.5836 91.252 70.8256 91.252C73.5076 91.252 75.1276 89.2 75.0556 86.356C74.9836 83.458 73.3096 81.712 70.8076 81.712C69.5296 81.712 68.3236 82.27 67.8196 83.098L67.6756 82H65.1376V95.32ZM67.9276 86.5C67.9276 85.15 68.8276 84.25 70.1236 84.25C71.4376 84.25 72.2656 85.168 72.2656 86.5C72.2656 87.832 71.4376 88.75 70.1236 88.75C68.8276 88.75 67.9276 87.85 67.9276 86.5Z" fill="#123C7B"/>
<path d="M0 95.23H75.6136V96.67H0V95.23Z" fill="#123C7B"/>
<path d="M38 0C55.6736 0 70 14.3264 70 32C70 49.6736 55.6736 64 38 64C32.8928 64.007 27.8586 62.7866 23.3216 60.4416L11.0784 63.856C10.3954 64.0466 9.67389 64.0522 8.98794 63.8722C8.302 63.6922 7.67624 63.3331 7.17478 62.8316C6.67332 62.3302 6.31419 61.7044 6.13419 61.0185C5.9542 60.3325 5.9598 59.611 6.15043 58.928L9.56803 46.6944C7.21715 42.1534 5.99338 37.1134 6.00003 32C6.00003 14.3264 20.3264 0 38 0ZM38 4.8C30.7861 4.8 23.8677 7.6657 18.7667 12.7667C13.6657 17.8677 10.8 24.7861 10.8 32C10.8 36.704 11.9936 41.2256 14.2336 45.2384L14.7136 46.1024L11.1552 58.8512L23.9136 55.2928L24.7776 55.7728C28.4076 57.791 32.4516 58.9511 36.5995 59.1642C40.7474 59.3772 44.889 58.6376 48.7067 57.0019C52.5244 55.3662 55.9168 52.878 58.6238 49.728C61.3308 46.578 63.2805 42.8499 64.3234 38.8297C65.3663 34.8094 65.4746 30.6036 64.6401 26.535C63.8056 22.4663 62.0505 18.6428 59.5093 15.3576C56.968 12.0725 53.7082 9.41286 49.9798 7.58279C46.2514 5.75272 42.1534 4.80079 38 4.8ZM38 43.2C38.8487 43.2 39.6626 43.5371 40.2628 44.1372C40.8629 44.7374 41.2 45.5513 41.2 46.4C41.2 47.2487 40.8629 48.0626 40.2628 48.6627C39.6626 49.2628 38.8487 49.6 38 49.6C37.1513 49.6 36.3374 49.2628 35.7373 48.6627C35.1372 48.0626 34.8 47.2487 34.8 46.4C34.8 45.5513 35.1372 44.7374 35.7373 44.1372C36.3374 43.5371 37.1513 43.2 38 43.2ZM38 15.2C40.3339 15.2 42.5722 16.1271 44.2226 17.7775C45.8729 19.4278 46.8 21.6661 46.8 24C46.8 27.232 45.8496 29.0368 43.4368 31.5488L42.896 32.096C40.9056 34.0864 40.4 34.9312 40.4 36.8C40.4 37.4365 40.1472 38.047 39.6971 38.497C39.247 38.9471 38.6365 39.2 38 39.2C37.3635 39.2 36.753 38.9471 36.303 38.497C35.8529 38.047 35.6 37.4365 35.6 36.8C35.6 33.568 36.5504 31.7632 38.9632 29.2512L39.504 28.704C41.4944 26.7136 42 25.8688 42 24C41.9967 22.9769 41.6015 21.9939 40.8956 21.2533C40.1898 20.5126 39.2269 20.0706 38.2051 20.0182C37.1834 19.9657 36.1803 20.3068 35.4023 20.9712C34.6243 21.6357 34.1305 22.573 34.0224 23.5904L34 24C34 24.6365 33.7472 25.247 33.2971 25.697C32.847 26.1471 32.2365 26.4 31.6 26.4C30.9635 26.4 30.3531 26.1471 29.903 25.697C29.4529 25.247 29.2 24.6365 29.2 24C29.2 21.6661 30.1272 19.4278 31.7775 17.7775C33.4278 16.1271 35.6661 15.2 38 15.2Z" fill="#123C7B"/>
</svg>
