<svg width="28" height="28" viewBox="0 0 28 28" fill="none" xmlns="http://www.w3.org/2000/svg">
<circle cx="14" cy="14" r="14" fill="#123C7B"/>
<path d="M5.36448 19V14.632H9.80248V19H11.5945V8.766H9.80248V13.036H5.36448V8.766H3.57248V19H5.36448ZM23.124 13.876C23.124 10.796 21.136 8.584 18.154 8.584C15.186 8.584 13.212 10.81 13.212 13.876C13.212 16.956 15.186 19.168 18.154 19.168C19.106 19.168 19.96 18.944 20.688 18.524L21.668 19.63L22.956 18.748L21.878 17.53C22.676 16.606 23.124 15.332 23.124 13.876ZM19.274 14.604L18 15.486L19.47 17.152C19.092 17.32 18.644 17.418 18.168 17.418C16.278 17.418 15.088 16.046 15.088 13.876C15.088 11.706 16.278 10.32 18.168 10.32C20.044 10.32 21.248 11.706 21.248 13.876C21.248 14.786 21.038 15.556 20.646 16.144L19.274 14.604Z" fill="white"/>
</svg>
