<svg width="46" height="34" viewBox="0 0 46 34" fill="none" xmlns="http://www.w3.org/2000/svg">
<path d="M26.0087 9.93356C26.0087 15.5496 29.7528 18.7176 34.2168 18.7176C35.5128 18.7176 36.5208 18.4296 37.5288 17.8536C37.3848 22.7496 33.4968 26.9256 28.4568 28.2216V33.2616C38.5368 31.8216 45.5928 23.4696 45.5928 12.9576C45.5928 5.18156 41.2728 0.573559 35.5128 0.573559C29.8968 0.573559 26.0087 4.46156 26.0087 9.93356ZM0.37675 9.93356C0.37675 15.5496 4.12075 18.7176 8.44075 18.7176C9.88075 18.7176 10.8888 18.4296 11.8968 17.8536C11.7527 22.7496 7.86475 26.9256 2.82475 28.2216V33.2616C12.9048 31.8216 19.9608 23.4696 19.9608 12.9576C19.9608 5.18156 15.6408 0.573559 9.88075 0.573559C4.12075 0.573559 0.37675 4.46156 0.37675 9.93356Z" fill="#123C7B"/>
</svg>
