<svg width="47" height="34" viewBox="0 0 47 34" fill="none" xmlns="http://www.w3.org/2000/svg">
<path d="M20.5118 24.293C20.5118 18.677 16.7678 15.509 12.3038 15.509C11.0078 15.509 9.99976 15.797 8.99176 16.373C9.13576 11.477 13.0238 7.301 18.0638 6.005V0.965004C7.98376 2.405 0.927756 10.757 0.927756 21.269C0.927756 29.045 5.24776 33.653 11.0078 33.653C16.6238 33.653 20.5118 29.765 20.5118 24.293ZM46.1438 24.293C46.1438 18.677 42.3998 15.509 38.0798 15.509C36.6398 15.509 35.6318 15.797 34.6238 16.373C34.7678 11.477 38.6558 7.301 43.6958 6.005V0.965004C33.6158 2.405 26.5598 10.757 26.5598 21.269C26.5598 29.045 30.8798 33.653 36.6398 33.653C42.3998 33.653 46.1438 29.765 46.1438 24.293Z" fill="#123C7B"/>
</svg>
